<svg xmlns="http://www.w3.org/2000/svg" viewBox="0 0 1200 900" role="img" aria-labelledby="title desc">
  <title id="title">Segnaposto foto coppia</title>
  <desc id="desc">Illustrazione autunnale con sagome e dicitura sostituisci con una foto.</desc>
  <defs>
    <linearGradient id="bg" x1="0%" y1="0%" x2="100%" y2="100%">
      <stop offset="0%" stop-color="#fbf6ee"/>
      <stop offset="100%" stop-color="#f6efe4"/>
    </linearGradient>
    <linearGradient id="sky" x1="0%" y1="0%" x2="0%" y2="100%">
      <stop offset="0%" stop-color="#d9b877" stop-opacity="0.55"/>
      <stop offset="100%" stop-color="#fbf6ee" stop-opacity="0.2"/>
    </linearGradient>
  </defs>
  <rect width="1200" height="900" rx="42" fill="url(#bg)"/>
  <rect x="36" y="36" width="1128" height="828" rx="34" fill="url(#sky)" stroke="#c9a24b" stroke-opacity="0.35"/>
  <circle cx="920" cy="180" r="70" fill="#d9b877" fill-opacity="0.45"/>
  <path d="M0 660 C200 590 360 590 540 650 C710 708 910 714 1200 620 L1200 900 L0 900 Z" fill="#8a9575" fill-opacity="0.78"/>
  <path d="M0 725 C170 665 355 690 530 735 C730 787 930 790 1200 720 L1200 900 L0 900 Z" fill="#7a3b3b" fill-opacity="0.18"/>
  <g fill="#7a3b3b">
    <ellipse cx="480" cy="392" rx="92" ry="108"/>
    <ellipse cx="710" cy="388" rx="92" ry="108"/>
    <path d="M350 690 C366 548 426 462 516 462 C607 462 652 540 660 690 Z"/>
    <path d="M566 690 C578 556 646 460 738 460 C826 460 888 552 900 690 Z"/>
  </g>
  <path d="M420 330 C462 262 544 246 616 298 C688 352 752 342 792 278" fill="none" stroke="#c9a24b" stroke-width="10" stroke-linecap="round" stroke-opacity="0.9"/>
  <g fill="#b5502d" fill-opacity="0.85">
    <path d="M205 170 C236 135 286 132 312 170 C280 178 247 199 228 234 C207 209 193 192 205 170 Z"/>
    <path d="M1018 286 C1054 250 1102 248 1128 285 C1090 293 1056 315 1036 350 C1018 325 1004 307 1018 286 Z"/>
    <path d="M956 636 C986 601 1034 597 1064 632 C1029 640 995 663 974 697 C956 671 944 654 956 636 Z"/>
  </g>
  <text x="600" y="812" text-anchor="middle" font-family="Georgia, serif" font-size="40" letter-spacing="4" fill="#7a3b3b" fill-opacity="0.78">
    SOSTITUISCI CON UNA FOTO
  </text>
</svg>
